<?xml version="1.0" encoding="UTF-8" standalone="no"?>
<!DOCTYPE svg PUBLIC "-//W3C//DTD SVG 1.1//EN" "http://www.w3.org/Graphics/SVG/1.1/DTD/svg11.dtd">
<svg version="1.1" xmlns="http://www.w3.org/2000/svg" xmlns:xlink="http://www.w3.org/1999/xlink" preserveAspectRatio="xMidYMid meet" viewBox="118.9375 189.9375 14 10.44999999999996" width="10" height="6.45"><defs><path d="M120.16 192.92C119.86 192.63 119.86 192.15 120.16 191.86C120.23 191.79 120.79 191.23 120.86 191.16C121.16 190.86 121.63 190.86 121.92 191.16C122.12 191.36 123.13 192.36 124.94 194.17C126.75 192.36 127.75 191.36 127.95 191.16C128.24 190.86 128.72 190.86 129.01 191.16C129.08 191.23 129.65 191.79 129.72 191.86C130.01 192.16 130.01 192.63 129.72 192.92C129.29 193.35 125.89 196.74 125.47 197.17C125.18 197.46 124.7 197.46 124.41 197.17C123.56 196.32 120.58 193.35 120.16 192.92Z" id="fSYtljtTs"></path></defs><g><g><use xlink:href="#fSYtljtTs" opacity="1" fill="#ffffff" fill-opacity="1"></use><g><use xlink:href="#fSYtljtTs" opacity="1" fill-opacity="0" stroke="#000000" stroke-width="1" stroke-opacity="0"></use></g></g></g></svg>