<?xml version="1.0" encoding="UTF-8" standalone="no"?>
<!DOCTYPE svg PUBLIC "-//W3C//DTD SVG 1.1//EN" "http://www.w3.org/Graphics/SVG/1.1/DTD/svg11.dtd">
<svg version="1.1" xmlns="http://www.w3.org/2000/svg" xmlns:xlink="http://www.w3.org/1999/xlink" preserveAspectRatio="xMidYMid meet" viewBox="-8.33471330920789 -14.111 222.37454322476881 215.18440450341777" width="194.15" height="186.96"><defs><path d="M140.64 0C125.49 0 111.2 5.68 100.19 15.98C89.25 5.86 75.07 0.3 60.07 0.3C44.25 0.3 29.36 6.5 18.15 17.71C-4.93 40.83 -4.93 78.5 18.15 101.66C19.67 103.17 31.76 115.26 33.27 116.77C31.76 118.99 30.94 121.62 30.94 124.37C30.94 128.01 32.37 131.4 34.92 133.99C37.48 136.55 40.9 137.98 44.55 137.98C45.6 137.98 46.61 137.83 47.63 137.6C47.4 138.61 47.25 139.63 47.25 140.68C47.25 144.33 48.68 147.75 51.24 150.31C53.8 152.9 57.22 154.29 60.83 154.29C61.92 154.29 62.93 154.18 63.95 153.92C62.93 158.35 64.1 163.2 67.56 166.66C70.11 169.22 73.53 170.65 77.14 170.65C78.23 170.65 79.25 170.5 80.26 170.27C79.25 174.67 80.41 179.52 83.87 182.98C86.43 185.53 89.85 186.96 93.46 186.96C96.32 186.96 99.02 186.1 101.28 184.48C103.5 185.91 106.05 186.7 108.76 186.7C112.37 186.7 115.79 185.31 118.35 182.71C121.32 179.74 122.63 175.72 122.26 171.85C123.99 172.64 125.87 173.01 127.78 173.01C131.43 173.01 134.85 171.59 137.41 169.03C140.83 165.61 142.03 160.76 141.02 156.32C142.03 156.59 143.05 156.7 144.1 156.7C147.71 156.7 151.13 155.27 153.72 152.71C156.28 150.16 157.67 146.74 157.67 143.09C157.67 141.17 157.3 139.33 156.54 137.64C160.49 137.94 164.48 136.55 167.33 133.69C169.89 131.1 171.32 127.71 171.32 124.07C171.32 120.94 170.27 117.97 168.35 115.57C169.77 114.14 181.14 102.74 182.56 101.32C193.76 90.12 199.93 75.19 199.93 59.36C199.93 43.5 193.76 28.57 182.56 17.37C171.36 6.17 156.47 0 140.64 0ZM44.51 133.01C42.22 133.01 40.04 132.11 38.42 130.49C36.8 128.84 35.9 126.7 35.9 124.37C35.9 122.94 36.24 121.62 36.88 120.38C37.29 119.63 37.78 118.88 38.42 118.24C38.53 118.13 39.08 117.58 40.07 116.58C48.06 108.6 52.49 104.16 53.38 103.27C55 101.66 57.18 100.76 59.47 100.76C61.8 100.76 63.95 101.66 65.6 103.27C68.95 106.66 68.95 112.15 65.6 115.49C64.71 116.38 60.28 120.83 52.29 128.84C51.3 129.83 50.75 130.38 50.64 130.49C50 131.13 49.28 131.62 48.49 132C47.29 132.64 45.94 133.01 44.51 133.01ZM60.83 149.37C58.53 149.37 56.35 148.46 54.74 146.81C51.99 144.1 51.5 140.01 53.19 136.73C53.61 135.95 54.1 135.23 54.74 134.59C54.85 134.48 55.4 133.92 56.39 132.9C67.58 121.71 73.79 115.5 75.04 114.25C76.65 112.6 78.83 111.7 81.16 111.7C83.46 111.7 85.64 112.6 87.26 114.25C88.87 115.87 89.77 118.05 89.77 120.34C89.77 122.67 88.87 124.85 87.26 126.47C86.01 127.72 79.8 133.95 68.61 145.16C67.62 146.15 67.06 146.7 66.95 146.81C66.31 147.45 65.56 147.94 64.81 148.35C63.57 148.99 62.25 149.37 60.83 149.37ZM77.14 165.68C74.85 165.68 72.67 164.78 71.05 163.16C68.31 160.42 67.82 156.32 69.51 153.05C69.92 152.3 70.41 151.55 71.05 150.91C71.16 150.8 71.71 150.25 72.71 149.25L84.92 137.04L89.06 132.86C89.49 132.43 89.73 132.2 89.77 132.15C91.43 130.53 93.61 129.63 95.9 129.63C98.2 129.63 100.38 130.53 101.99 132.15C105.38 135.53 105.38 141.02 101.99 144.4C101.94 144.45 101.71 144.69 101.28 145.12L97.14 149.25L84.92 161.51C83.93 162.5 83.38 163.05 83.27 163.16C82.63 163.8 81.88 164.29 81.09 164.67C79.89 165.31 78.57 165.68 77.14 165.68ZM99.59 179.48C98.95 180.12 98.2 180.61 97.41 181.02C96.2 181.62 94.89 182 93.46 182C91.17 182 88.98 181.1 87.37 179.48C84.62 176.74 84.13 172.68 85.83 169.41C86.2 168.62 86.69 167.9 87.37 167.22C87.48 167.11 88.03 166.56 89.02 165.57L101.24 153.35C101.4 153.19 101.49 153.11 101.5 153.09C102.93 151.66 104.77 150.83 106.8 150.65C107.07 150.61 107.33 150.57 107.59 150.57C109.89 150.57 112.07 151.47 113.72 153.09C115.6 154.97 116.39 157.53 116.17 160.01C115.98 161.96 115.19 163.84 113.72 165.34C113.7 165.36 113.62 165.45 113.46 165.61L101.24 177.83C100.25 178.82 99.7 179.37 99.59 179.48ZM108.72 181.77C107.48 181.77 106.24 181.47 105.11 180.95C106.26 179.8 115.4 170.63 116.54 169.48C118.01 172.68 117.48 176.59 114.85 179.22C113.23 180.87 111.05 181.77 108.72 181.77ZM151.62 130.19C148.33 126.9 122.05 100.59 118.76 97.3C117.82 96.32 116.24 96.32 115.26 97.3C115.2 97.36 114.72 97.84 114.66 97.9C114.21 98.35 113.95 98.99 113.95 99.63C113.95 100.3 114.21 100.91 114.66 101.4C118.22 104.95 146.67 133.4 150.23 136.96C151.84 138.61 152.75 140.8 152.75 143.09C152.75 145.38 151.84 147.56 150.23 149.22C148.57 150.83 146.43 151.74 144.1 151.74C141.81 151.74 139.63 150.83 138.01 149.22C134.45 145.59 106 116.6 102.44 112.97C101.99 112.52 101.35 111.62 100.71 111.62C100.71 111.62 100.71 111.62 100.71 111.62C100.04 111.62 99.4 112.52 98.95 113.01C98.89 113.1 98.41 113.82 98.35 113.91C97.41 114.89 97.41 116.62 98.35 117.56C101.9 121.13 130.35 149.67 133.91 153.24C137.26 156.59 137.26 162.11 133.91 165.5C132.26 167.15 130.11 168.05 127.78 168.05C125.49 168.05 123.31 167.15 121.69 165.53C121.55 165.39 120.41 164.25 120.26 164.1C122.14 159.25 121.13 153.5 117.22 149.59C114.62 147 111.24 145.61 107.59 145.61C107.52 145.61 107.41 145.61 107.33 145.61C110.71 140.34 110.11 133.24 105.49 128.65C102.93 126.06 99.51 124.67 95.9 124.67C95.26 124.67 94.62 124.7 93.98 124.82C94.47 123.39 94.74 121.88 94.74 120.34C94.74 116.73 93.31 113.31 90.75 110.76C88.2 108.16 84.77 106.77 81.16 106.77C78.19 106.77 75.37 107.71 73.04 109.44C73.08 105.94 71.77 102.45 69.1 99.78C66.54 97.18 63.12 95.79 59.47 95.79C55.86 95.79 52.44 97.18 49.89 99.78C49 100.67 44.56 105.1 36.58 113.09C27.62 104.11 22.65 99.12 21.65 98.12C0.48 76.92 0.48 42.41 21.65 21.2C31.91 10.94 45.56 5.26 60.07 5.26C73.76 5.26 86.62 10.3 96.65 19.47C92.21 23.92 56.69 59.47 52.25 63.91C46.95 69.21 46.95 77.82 52.22 83.12C52.45 83.36 54.35 85.22 54.58 85.45C57.1 88.01 60.52 89.4 64.13 89.4C67.78 89.4 71.16 87.97 73.76 85.42C75.68 83.49 85.28 73.88 102.56 56.58C139.32 93.39 159.75 113.85 163.84 117.94C165.45 119.59 166.36 121.77 166.36 124.07C166.36 126.36 165.45 128.54 163.84 130.19C162.22 131.81 160.04 132.71 157.75 132.71C155.42 132.71 153.24 131.81 151.62 130.19ZM103.53 50.57C103.27 50.45 103.01 50.42 102.74 50.42C102.11 50.42 101.47 50.64 100.98 51.13C100.85 51.26 100.21 51.91 99.06 53.08C81.78 70.39 72.18 80 70.26 81.92C68.61 83.54 66.46 84.44 64.13 84.44C61.8 84.44 59.7 83.57 58.08 81.96C57.84 81.72 55.95 79.83 55.71 79.59C52.37 76.24 52.4 70.79 55.75 67.41C58.55 64.6 72.56 50.58 97.78 25.34C100.44 22.66 101.92 21.16 102.22 20.87C102.41 20.72 102.56 20.56 102.71 20.41C112.93 10.45 126.35 4.96 140.64 4.96C155.15 4.96 168.8 10.6 179.06 20.87C189.33 31.17 195 44.81 195 59.36C195 73.88 189.33 87.52 179.06 97.82C178.13 98.75 173.48 103.4 165.12 111.77L104.47 51.13C104.07 50.83 103.76 50.64 103.53 50.57Z" id="f3DnSc6a3y"></path></defs><g><g><use xlink:href="#f3DnSc6a3y" opacity="1" fill="#ffffff" fill-opacity="1"></use><g><use xlink:href="#f3DnSc6a3y" opacity="1" fill-opacity="0" stroke="#000000" stroke-width="28.22" stroke-opacity="0"></use></g></g></g></svg>